<svg viewBox="0 0 64 64" fill="none" xmlns="http://www.w3.org/2000/svg">
<rect width="64" height="64" rx="8" fill="#E6F7FF"/>
<g clip-path="url(#clip0_916_6303)">
<path d="M9.01789 19.3696C11.4185 19.4206 12.5698 19.5895 13.3157 20.2504C13.6204 20.5068 13.8563 20.8363 14.0013 21.2084C14.1369 21.5928 14.1784 22.0046 14.1224 22.4086C14.0754 22.796 13.9653 23.1732 13.7972 23.5248C13.5623 24.0649 12.7317 24.5984 12.72 24.6059C13.3334 24.7932 13.874 25.1673 14.2669 25.6772C15.1926 27.6681 14.0257 29.0346 14.0257 29.0346C12.9231 30.6813 10.095 30.4389 10.095 30.4389H5.99543V19.3832C7.21511 19.3482 8.23821 19.3546 9.01789 19.3696ZM8.91926 25.308C8.9377 25.3434 8.9195 27.6156 8.91926 27.6459L10.431 27.685C10.431 27.685 11.8094 27.6144 11.7777 26.4965C11.7458 25.3786 10.8011 25.3696 10.8011 25.3696L8.91926 25.308ZM8.93781 21.1264C8.91903 21.1274 8.93759 23.1552 8.93781 23.1791L10.4183 23.1537C10.4274 23.1525 11.2432 23.0347 11.263 22.1576C11.2828 21.2759 10.5854 21.1798 10.6282 21.1957C10.0665 21.1421 9.5021 21.1185 8.93781 21.1264Z" fill="#141414"/>
<path d="M25.3712 23.1389L26.7729 22.2687C26.2472 21.5537 24.9889 20.013 23.3732 19.5877C23.1373 19.5254 22.8824 19.4829 22.8824 19.4829C21.4101 19.118 20.1876 19.657 19.9028 19.7618C19.5365 19.8983 18.1826 20.4471 17.3444 21.6773C17.1498 21.9704 16.98 22.279 16.8367 22.5999C16.6317 23.0693 16.4788 23.5594 16.3807 24.0616C16.3483 24.1995 16.3237 24.3392 16.3071 24.4799C16.2812 24.7344 16.2812 24.9908 16.3071 25.2453C16.3361 25.6576 16.4065 26.0661 16.5171 26.4646C16.6038 26.788 16.7212 27.1026 16.8675 27.4041C17.0777 27.8359 17.3493 28.2356 17.6739 28.5907C18.0298 28.9765 18.4435 29.3054 18.9004 29.5658C19.414 29.8652 19.9691 30.0881 20.5479 30.2274C21.1185 30.3801 21.7104 30.4389 22.3 30.4014C22.8918 30.3579 23.4721 30.2168 24.0173 29.9841C24.482 29.8036 24.918 29.5571 25.3115 29.2523C25.6336 28.9938 25.9273 28.7021 26.1875 28.3821C26.4745 28.0362 26.7436 27.6761 26.9939 27.3032C27.0795 27.1816 27.187 27.0273 27.3095 26.8157C27.4355 26.6056 27.5412 26.384 27.625 26.1541C27.6679 26.0285 27.7028 25.9003 27.7296 25.7704C27.8467 25.2844 27.9991 24.8075 28.1855 24.3434C28.3949 23.8081 28.678 23.3042 29.0267 22.8462C29.3602 22.418 29.8839 21.7445 30.8495 21.349C31.4534 21.0987 32.1116 21.0058 32.7618 21.079C33.412 21.1522 34.0326 21.3891 34.5648 21.7673C34.9976 22.0489 35.3673 22.4162 35.6509 22.8462C35.8577 23.1559 36.0152 23.4954 36.1178 23.8529C36.2343 24.3074 36.268 24.779 36.2173 25.2453C36.1698 25.7169 36.039 26.1765 35.831 26.603C35.6293 27.0675 35.3217 27.479 34.9325 27.805C34.5432 28.1311 34.083 28.3629 33.5882 28.482C32.8344 28.7014 32.0347 28.7134 31.2746 28.5166C30.6929 28.358 30.1542 28.0725 29.6977 27.681C29.3585 27.3839 29.0739 27.0305 28.8565 26.6367L27.4568 27.5455C27.4707 27.5702 27.5096 27.6374 27.5613 27.7195C28.0312 28.4144 28.6254 29.0177 29.3144 29.4996C29.414 29.5688 29.5245 29.638 29.5245 29.638C29.5245 29.638 29.8102 29.8219 30.0501 29.9515C30.547 30.1878 31.0798 30.3409 31.627 30.4044C32.1983 30.4775 32.7774 30.4658 33.3452 30.3698C33.8561 30.2943 34.3523 30.1416 34.8166 29.9169C35.2565 29.7023 35.6596 29.4203 36.0112 29.0812C36.0162 29.0812 36.0301 29.0447 36.0471 29.0466C36.064 29.0486 36.0769 29.102 36.0819 29.1515C36.0869 29.2009 36.1068 29.2642 36.1168 29.3255C36.1344 29.4289 36.146 29.5333 36.1516 29.638C36.1606 29.6736 36.1715 29.7211 36.1864 29.7774C36.2103 29.8664 36.2372 29.9604 36.2571 30.0217C36.3041 30.1653 36.3627 30.3048 36.4323 30.439H38.5349L38.4652 30.3401C38.4044 30.2323 38.3457 30.1166 38.29 29.992C38.0949 29.5505 37.9764 29.0794 37.9395 28.5987C37.9206 28.2783 37.8997 27.7818 37.9047 27.1717C37.9047 26.606 37.9316 26.4132 37.9395 25.9177C37.9525 25.0969 37.9594 24.5926 37.8689 24.0388C37.7494 23.3108 37.4876 22.613 37.0983 21.9848C36.6555 21.2738 36.0548 20.6727 35.3422 20.2276C34.6269 19.7977 33.8258 19.5277 32.9948 19.4364C32.2052 19.3279 31.4012 19.3976 30.6424 19.6402C29.9866 19.862 29.3787 20.2045 28.8505 20.6498C28.4165 20.9958 28.0279 21.3945 27.6937 21.8365C27.4089 22.2177 27.1625 22.6258 26.958 23.0548C26.7828 23.4069 26.6514 23.7471 26.3976 24.4126C26.0083 25.4302 26.076 25.358 25.9068 25.7358C25.6672 26.3181 25.3358 26.8589 24.9252 27.3378C24.6326 27.6956 24.2795 28.0001 23.8819 28.2377C23.0037 28.7099 21.9855 28.8581 21.0079 28.656C20.4325 28.5103 19.896 28.2417 19.4359 27.8688C18.9758 27.496 18.6031 27.0279 18.3439 26.4972C18.1238 26.0426 18.0036 25.5466 17.9914 25.0422C17.9793 24.5378 18.0753 24.0367 18.2732 23.572C18.4708 23.0187 18.7948 22.5184 19.2199 22.1104C19.6567 21.7022 20.1854 21.4035 20.762 21.2392C21.1613 21.1311 21.5749 21.0844 21.9884 21.1008C22.6517 21.1232 23.3001 21.3022 23.8799 21.6229C24.5064 21.9843 25.0219 22.5084 25.3712 23.1389Z" fill="#0066CC"/>
<path d="M42.483 19.3639C43.9852 19.3399 44.5828 19.3925 44.8815 19.4234C45.4657 19.4833 45.9408 19.5705 46.2623 19.6353C46.5536 19.7123 47.6257 20.031 48.2526 21.0709C48.7155 21.8389 48.6961 22.6029 48.6852 23.0299C48.682 23.7127 48.4955 24.382 48.1461 24.9683C47.8408 25.4708 47.4215 25.8947 46.9225 26.2047C47.7415 27.6138 48.5606 29.0231 49.3795 30.4322L46.0241 30.4517C45.3302 29.1491 45.0201 28.5059 44.8678 28.1578C44.7722 27.9424 44.6508 27.7385 44.5582 27.523C44.3941 27.1432 44.3415 26.9337 44.1266 26.8121C44.022 26.7613 43.9077 26.7323 43.7916 26.7271C43.5466 26.6979 43.2986 26.7007 43.0543 26.7359C43.0577 27.9581 43.0084 29.2309 43.0084 30.4517H40.1784V19.442C41.1072 19.3881 41.8917 19.3658 42.483 19.3639ZM42.9196 24.3375H44.6305C44.8287 24.2637 45.0126 24.1548 45.1725 24.0162C45.4721 23.7747 45.673 23.4313 45.737 23.0514C45.7726 22.8876 45.7728 22.7182 45.7379 22.5543C45.703 22.3902 45.6332 22.2352 45.5338 22.1002C45.4345 21.9653 45.3078 21.8529 45.1618 21.7711C45.0157 21.6893 44.8539 21.6398 44.6871 21.6256L42.945 21.6178C42.937 22.5248 42.9282 23.4318 42.9196 24.3375Z" fill="#141414"/>
<path d="M51.1928 19.4398C52.4714 19.3157 53.7595 19.3331 55.0346 19.4916C56.3386 19.6565 56.9526 19.89 57.4614 20.18C58.0132 20.4814 58.5009 20.894 58.895 21.3939C59.8548 22.6484 59.8303 24.1229 59.8188 24.8461C59.8034 25.6417 59.7691 27.8558 58.183 29.2464C57.0763 30.2136 55.6756 30.3706 55.2289 30.4213C54.9019 30.458 54.2965 30.4546 53.1 30.4466C52.3162 30.4417 51.6695 30.4302 51.2328 30.4213L51.1928 19.4398ZM55.7084 22.2377C54.8844 21.6555 53.9617 21.7417 53.6459 21.7855C53.6452 21.8477 53.5697 28.1644 53.6459 28.1644C53.7281 28.1651 56.01 28.4156 56.5688 26.3724C56.6582 25.958 56.7083 25.5356 56.7182 25.1117C56.7421 24.2737 56.7684 23.4199 56.2133 22.7113C56.0685 22.5304 55.8983 22.3704 55.7084 22.2377Z" fill="#141414"/>
</g>
<path d="M8.36627 44.4254H6.25056V35.359H8.36627V44.4254ZM18.0306 35.359V44.4254H16.9354C16.7737 44.4254 16.6368 44.4005 16.5248 44.3507C16.4169 44.2968 16.309 44.2055 16.2012 44.0769L11.9262 38.6695C11.9428 38.8312 11.9532 38.9889 11.9573 39.1424C11.9656 39.2917 11.9698 39.4328 11.9698 39.5655V44.4254H10.1154V35.359H11.2231C11.3143 35.359 11.3911 35.3632 11.4533 35.3714C11.5155 35.3797 11.5715 35.3963 11.6213 35.4212C11.6711 35.442 11.7188 35.4731 11.7644 35.5146C11.8101 35.5561 11.8619 35.6121 11.92 35.6826L16.2323 41.1274C16.2115 40.9532 16.197 40.7852 16.1887 40.6234C16.1804 40.4574 16.1763 40.3019 16.1763 40.1567V35.359H18.0306ZM21.9054 36.9769V39.2731H25.0043V40.8972H21.9054V44.4254H19.7897V35.359H25.6266V36.9769H21.9054ZM28.9545 44.4254H26.8388V35.359H28.9545V44.4254ZM38.6189 35.359V44.4254H37.5237C37.3619 44.4254 37.225 44.4005 37.113 44.3507C37.0051 44.2968 36.8973 44.2055 36.7894 44.0769L32.5145 38.6695C32.531 38.8312 32.5414 38.9889 32.5456 39.1424C32.5539 39.2917 32.558 39.4328 32.558 39.5655V44.4254H30.7037V35.359H31.8113C31.9026 35.359 31.9793 35.3632 32.0415 35.3714C32.1038 35.3797 32.1598 35.3963 32.2095 35.4212C32.2593 35.442 32.307 35.4731 32.3527 35.5146C32.3983 35.5561 32.4502 35.6121 32.5082 35.6826L36.8205 41.1274C36.7998 40.9532 36.7853 40.7852 36.777 40.6234C36.7687 40.4574 36.7645 40.3019 36.7645 40.1567V35.359H38.6189ZM42.4937 44.4254H40.378V35.359H42.4937V44.4254ZM50.7579 37.0267H48.2066V44.4254H46.1034V37.0267H43.5521V35.359H50.7579V37.0267ZM56.1701 40.9781V44.4254H54.0668V40.9781L50.7813 35.359H52.6356C52.8181 35.359 52.9613 35.4026 53.065 35.4897C53.1728 35.5726 53.262 35.6805 53.3325 35.8133L54.6144 38.4517C54.7223 38.6591 54.8198 38.8541 54.9069 39.0366C54.994 39.215 55.0707 39.3913 55.1371 39.5655C55.1993 39.3871 55.2699 39.2088 55.3487 39.0304C55.4317 38.8478 55.5271 38.6549 55.6349 38.4517L56.9044 35.8133C56.9334 35.7593 56.9687 35.7054 57.0101 35.6515C57.0516 35.5975 57.0993 35.5498 57.1533 35.5083C57.2113 35.4627 57.2756 35.4275 57.3462 35.4026C57.4208 35.3735 57.5017 35.359 57.5888 35.359H59.4556L56.1701 40.9781Z" fill="#141414"/>
<defs>
<clipPath id="clip0_916_6303">
<rect width="54.4482" height="18.668" fill="white" transform="translate(5.37317 15.6243)"/>
</clipPath>
</defs>
</svg>
